# xmcd
#
# Track frame offsets:
# 150
# 12847
# 28074
# 44170
# 58776
# 73867
# 86079
# 102381
# 118347
# 129952
# 144612
# 164076
# 179715
# 199903
# 210762
# 225336
#
# Disc length: 3248 seconds
#
#
# Revision: 0
# Processed by: cddbd v1.5.2PL0 Copyright (c) Steve Scherf et al.
# Submitted via: FreeRIP 2.942 
#
DISCID=f10cae10
DTITLE=dany and diego - recordações pra vida inteira
DYEAR=1900
DGENRE=Country/sertanejo
TTITLE0=fechou o tempo
TTITLE1=recordações pra vida inteira
TTITLE2=destino a mato grosso
TTITLE3=sangue cigano
TTITLE4=pega leve
TTITLE5=xote marcado
TTITLE6=bate a bota no chão
TTITLE7=clareou
TTITLE8=sertanejo sem mistura
TTITLE9=tô morrendo de saudade
TTITLE10=o poder da fé
TTITLE11=primeira luz
TTITLE12=tropas e boiadas
TTITLE13=qui nem qui nóis
TTITLE14=francisco de assis
TTITLE15=meu pai
EXTD=
EXTT0=
EXTT1=
EXTT2=
EXTT3=
EXTT4=
EXTT5=
EXTT6=
EXTT7=
EXTT8=
EXTT9=
EXTT10=
EXTT11=
EXTT12=
EXTT13=
EXTT14=
EXTT15=
PLAYORDER=
